<mxfile host="app.diagrams.net" modified="2024-06-12T10:14:05.414Z" agent="Mozilla/5.0 (Windows NT 10.0; Win64; x64) AppleWebKit/537.36 (KHTML, like Gecko) Chrome/125.0.0.0 Safari/537.36" etag="Drb3wRa5Q4kiTKvhh-dS" version="24.5.3" type="device">
  <diagram name="Trang-1" id="U0BNx2-EQ3D5q49Zk3An">
    <mxGraphModel dx="1244" dy="482" grid="1" gridSize="10" guides="1" tooltips="1" connect="1" arrows="1" fold="1" page="1" pageScale="1" pageWidth="827" pageHeight="1169" math="0" shadow="0">
      <root>
        <mxCell id="0" />
        <mxCell id="1" parent="0" />
        <mxCell id="FjeWPVe3WayuoKvcthpF-1" value="User" style="shape=umlActor;verticalLabelPosition=bottom;verticalAlign=top;html=1;" parent="1" vertex="1">
          <mxGeometry x="30" y="520" width="30" height="60" as="geometry" />
        </mxCell>
        <mxCell id="FjeWPVe3WayuoKvcthpF-2" value="Face Detect" style="swimlane;" parent="1" vertex="1">
          <mxGeometry x="120" y="290" width="470" height="520" as="geometry" />
        </mxCell>
        <mxCell id="FjeWPVe3WayuoKvcthpF-4" value="Chọn ảnh từ thư viện" style="ellipse;whiteSpace=wrap;html=1;align=center;" parent="FjeWPVe3WayuoKvcthpF-2" vertex="1">
          <mxGeometry x="60" y="120" width="100" height="40" as="geometry" />
        </mxCell>
        <mxCell id="FjeWPVe3WayuoKvcthpF-6" value="Mở camera" style="ellipse;whiteSpace=wrap;html=1;align=center;" parent="FjeWPVe3WayuoKvcthpF-2" vertex="1">
          <mxGeometry x="65" y="290" width="80" height="30" as="geometry" />
        </mxCell>
        <mxCell id="UibIeB1bYDJK1XPZ9MTi-1" value="Mở camera với filter" style="ellipse;whiteSpace=wrap;html=1;" vertex="1" parent="FjeWPVe3WayuoKvcthpF-2">
          <mxGeometry x="60" y="420" width="90" height="40" as="geometry" />
        </mxCell>
        <mxCell id="UibIeB1bYDJK1XPZ9MTi-2" value="Áp dụng filter lên ảnh" style="ellipse;whiteSpace=wrap;html=1;" vertex="1" parent="FjeWPVe3WayuoKvcthpF-2">
          <mxGeometry x="294" y="160" width="103" height="40" as="geometry" />
        </mxCell>
        <mxCell id="UibIeB1bYDJK1XPZ9MTi-3" value="Chụp ảnh từ camera" style="ellipse;whiteSpace=wrap;html=1;" vertex="1" parent="FjeWPVe3WayuoKvcthpF-2">
          <mxGeometry x="300" y="360" width="90" height="40" as="geometry" />
        </mxCell>
        <mxCell id="UibIeB1bYDJK1XPZ9MTi-13" value="&amp;lt;&amp;lt;extend&amp;gt;&amp;gt;" style="endArrow=open;endSize=12;dashed=1;html=1;rounded=0;exitX=1;exitY=0.5;exitDx=0;exitDy=0;entryX=0;entryY=0.5;entryDx=0;entryDy=0;" edge="1" parent="FjeWPVe3WayuoKvcthpF-2" source="FjeWPVe3WayuoKvcthpF-4" target="UibIeB1bYDJK1XPZ9MTi-2">
          <mxGeometry width="160" relative="1" as="geometry">
            <mxPoint x="174" y="139.5" as="sourcePoint" />
            <mxPoint x="334" y="139.5" as="targetPoint" />
          </mxGeometry>
        </mxCell>
        <mxCell id="UibIeB1bYDJK1XPZ9MTi-14" value="&amp;lt;&amp;lt;extend&amp;gt;&amp;gt;" style="endArrow=open;endSize=12;dashed=1;html=1;rounded=0;exitX=0.5;exitY=1;exitDx=0;exitDy=0;entryX=0.5;entryY=0;entryDx=0;entryDy=0;" edge="1" parent="FjeWPVe3WayuoKvcthpF-2" source="FjeWPVe3WayuoKvcthpF-6" target="UibIeB1bYDJK1XPZ9MTi-1">
          <mxGeometry width="160" relative="1" as="geometry">
            <mxPoint x="110" y="270" as="sourcePoint" />
            <mxPoint x="195" y="307" as="targetPoint" />
          </mxGeometry>
        </mxCell>
        <mxCell id="UibIeB1bYDJK1XPZ9MTi-15" value="&amp;lt;&amp;lt;extend&amp;gt;&amp;gt;" style="endArrow=open;endSize=12;dashed=1;html=1;rounded=0;exitX=1;exitY=0.5;exitDx=0;exitDy=0;entryX=0;entryY=0.5;entryDx=0;entryDy=0;" edge="1" parent="FjeWPVe3WayuoKvcthpF-2" source="FjeWPVe3WayuoKvcthpF-6" target="UibIeB1bYDJK1XPZ9MTi-3">
          <mxGeometry width="160" relative="1" as="geometry">
            <mxPoint x="240" y="245" as="sourcePoint" />
            <mxPoint x="240" y="325" as="targetPoint" />
          </mxGeometry>
        </mxCell>
        <mxCell id="UibIeB1bYDJK1XPZ9MTi-16" value="&amp;lt;&amp;lt;extend&amp;gt;&amp;gt;" style="endArrow=open;endSize=12;dashed=1;html=1;rounded=0;exitX=1;exitY=0.5;exitDx=0;exitDy=0;entryX=0;entryY=0.5;entryDx=0;entryDy=0;" edge="1" parent="FjeWPVe3WayuoKvcthpF-2" source="UibIeB1bYDJK1XPZ9MTi-1" target="UibIeB1bYDJK1XPZ9MTi-3">
          <mxGeometry width="160" relative="1" as="geometry">
            <mxPoint x="180" y="370" as="sourcePoint" />
            <mxPoint x="264" y="410" as="targetPoint" />
          </mxGeometry>
        </mxCell>
        <mxCell id="UibIeB1bYDJK1XPZ9MTi-21" value="Lưu ảnh" style="ellipse;whiteSpace=wrap;html=1;" vertex="1" parent="FjeWPVe3WayuoKvcthpF-2">
          <mxGeometry x="300" y="240" width="90" height="35" as="geometry" />
        </mxCell>
        <mxCell id="UibIeB1bYDJK1XPZ9MTi-19" value="&amp;lt;&amp;lt;include&amp;gt;&amp;gt;" style="endArrow=open;endSize=12;dashed=1;html=1;rounded=0;exitX=0.5;exitY=0;exitDx=0;exitDy=0;" edge="1" parent="FjeWPVe3WayuoKvcthpF-2" source="UibIeB1bYDJK1XPZ9MTi-3" target="UibIeB1bYDJK1XPZ9MTi-21">
          <mxGeometry width="160" relative="1" as="geometry">
            <mxPoint x="294" y="350" as="sourcePoint" />
            <mxPoint x="350" y="310" as="targetPoint" />
          </mxGeometry>
        </mxCell>
        <mxCell id="FjeWPVe3WayuoKvcthpF-32" value="" style="endArrow=none;html=1;rounded=0;exitX=0.5;exitY=0.5;exitDx=0;exitDy=0;exitPerimeter=0;entryX=-0.044;entryY=0.602;entryDx=0;entryDy=0;entryPerimeter=0;" parent="1" source="FjeWPVe3WayuoKvcthpF-1" target="FjeWPVe3WayuoKvcthpF-4" edge="1">
          <mxGeometry relative="1" as="geometry">
            <mxPoint x="80" y="509.63" as="sourcePoint" />
            <mxPoint x="240" y="509.63" as="targetPoint" />
          </mxGeometry>
        </mxCell>
        <mxCell id="FjeWPVe3WayuoKvcthpF-34" value="" style="endArrow=none;html=1;rounded=0;exitX=0.5;exitY=0.5;exitDx=0;exitDy=0;exitPerimeter=0;entryX=0;entryY=0.5;entryDx=0;entryDy=0;" parent="1" source="FjeWPVe3WayuoKvcthpF-1" target="FjeWPVe3WayuoKvcthpF-6" edge="1">
          <mxGeometry relative="1" as="geometry">
            <mxPoint x="100" y="580" as="sourcePoint" />
            <mxPoint x="260" y="580" as="targetPoint" />
          </mxGeometry>
        </mxCell>
        <mxCell id="FjeWPVe3WayuoKvcthpF-37" value="Phát hiện khuôn mặt trong ảnh" style="shape=umlActor;verticalLabelPosition=bottom;verticalAlign=top;html=1;" parent="1" vertex="1">
          <mxGeometry x="670" y="360" width="30" height="60" as="geometry" />
        </mxCell>
        <mxCell id="FjeWPVe3WayuoKvcthpF-41" value="Phát hiện khuôn mặt từ camera" style="shape=umlActor;verticalLabelPosition=bottom;verticalAlign=top;html=1;" parent="1" vertex="1">
          <mxGeometry x="670" y="620" width="30" height="60" as="geometry" />
        </mxCell>
        <mxCell id="UibIeB1bYDJK1XPZ9MTi-7" value="" style="endArrow=none;html=1;rounded=0;entryX=0.02;entryY=0.26;entryDx=0;entryDy=0;entryPerimeter=0;exitX=0.5;exitY=0.5;exitDx=0;exitDy=0;exitPerimeter=0;" edge="1" parent="1" source="FjeWPVe3WayuoKvcthpF-1" target="UibIeB1bYDJK1XPZ9MTi-1">
          <mxGeometry relative="1" as="geometry">
            <mxPoint x="65" y="510" as="sourcePoint" />
            <mxPoint x="275" y="620" as="targetPoint" />
          </mxGeometry>
        </mxCell>
        <mxCell id="UibIeB1bYDJK1XPZ9MTi-9" value="Ảnh có filter" style="shape=umlActor;verticalLabelPosition=bottom;verticalAlign=top;html=1;" vertex="1" parent="1">
          <mxGeometry x="670" y="470" width="30" height="60" as="geometry" />
        </mxCell>
        <mxCell id="UibIeB1bYDJK1XPZ9MTi-10" value="&amp;nbsp;Áp dụng filter lên camera" style="shape=umlActor;verticalLabelPosition=bottom;verticalAlign=top;html=1;" vertex="1" parent="1">
          <mxGeometry x="670" y="700" width="30" height="60" as="geometry" />
        </mxCell>
        <mxCell id="UibIeB1bYDJK1XPZ9MTi-22" value="" style="endArrow=none;html=1;rounded=0;entryX=0.5;entryY=0.5;entryDx=0;entryDy=0;entryPerimeter=0;exitX=1;exitY=0.5;exitDx=0;exitDy=0;" edge="1" parent="1" source="FjeWPVe3WayuoKvcthpF-4" target="FjeWPVe3WayuoKvcthpF-37">
          <mxGeometry relative="1" as="geometry">
            <mxPoint x="323" y="410" as="sourcePoint" />
            <mxPoint x="433.5" y="334" as="targetPoint" />
          </mxGeometry>
        </mxCell>
        <mxCell id="UibIeB1bYDJK1XPZ9MTi-23" value="" style="endArrow=none;html=1;rounded=0;entryX=0.5;entryY=0.5;entryDx=0;entryDy=0;entryPerimeter=0;exitX=1;exitY=0.5;exitDx=0;exitDy=0;" edge="1" parent="1" source="UibIeB1bYDJK1XPZ9MTi-2" target="UibIeB1bYDJK1XPZ9MTi-9">
          <mxGeometry relative="1" as="geometry">
            <mxPoint x="547.5" y="470" as="sourcePoint" />
            <mxPoint x="962.5" y="370" as="targetPoint" />
          </mxGeometry>
        </mxCell>
        <mxCell id="UibIeB1bYDJK1XPZ9MTi-24" value="" style="endArrow=none;html=1;rounded=0;entryX=0.5;entryY=0.5;entryDx=0;entryDy=0;entryPerimeter=0;exitX=1;exitY=0.5;exitDx=0;exitDy=0;" edge="1" parent="1" source="UibIeB1bYDJK1XPZ9MTi-21" target="UibIeB1bYDJK1XPZ9MTi-9">
          <mxGeometry relative="1" as="geometry">
            <mxPoint x="547" y="530" as="sourcePoint" />
            <mxPoint x="705" y="480" as="targetPoint" />
          </mxGeometry>
        </mxCell>
        <mxCell id="UibIeB1bYDJK1XPZ9MTi-25" value="" style="endArrow=none;html=1;rounded=0;entryX=0.5;entryY=0.5;entryDx=0;entryDy=0;entryPerimeter=0;exitX=1;exitY=0.5;exitDx=0;exitDy=0;" edge="1" parent="1" source="UibIeB1bYDJK1XPZ9MTi-21" target="FjeWPVe3WayuoKvcthpF-37">
          <mxGeometry relative="1" as="geometry">
            <mxPoint x="540" y="548" as="sourcePoint" />
            <mxPoint x="705" y="500" as="targetPoint" />
          </mxGeometry>
        </mxCell>
        <mxCell id="UibIeB1bYDJK1XPZ9MTi-26" value="" style="endArrow=none;html=1;rounded=0;entryX=0.5;entryY=0.5;entryDx=0;entryDy=0;entryPerimeter=0;exitX=1;exitY=0.5;exitDx=0;exitDy=0;" edge="1" parent="1" source="FjeWPVe3WayuoKvcthpF-6" target="FjeWPVe3WayuoKvcthpF-41">
          <mxGeometry relative="1" as="geometry">
            <mxPoint x="530" y="642" as="sourcePoint" />
            <mxPoint x="695" y="527" as="targetPoint" />
          </mxGeometry>
        </mxCell>
        <mxCell id="UibIeB1bYDJK1XPZ9MTi-27" value="" style="endArrow=none;html=1;rounded=0;entryX=0.5;entryY=0.5;entryDx=0;entryDy=0;entryPerimeter=0;exitX=1;exitY=0.5;exitDx=0;exitDy=0;" edge="1" parent="1" source="UibIeB1bYDJK1XPZ9MTi-1" target="UibIeB1bYDJK1XPZ9MTi-10">
          <mxGeometry relative="1" as="geometry">
            <mxPoint x="230" y="735" as="sourcePoint" />
            <mxPoint x="660" y="710" as="targetPoint" />
          </mxGeometry>
        </mxCell>
      </root>
    </mxGraphModel>
  </diagram>
</mxfile>
